<svg version="1.1" id="prefix__Layer_1" xmlns="http://www.w3.org/2000/svg" x="0" y="0" viewBox="0 0 301.4 464" xml:space="preserve"><style>.prefix__st4{fill:none;stroke:#000;stroke-width:22;stroke-linecap:round;stroke-miterlimit:10}</style><path d="M175.9 449.2c-9.8 0-20.5-.5-31.7-1.6-11.3-1.1-22-2-32.4-2.9-36.6-3.2-68.1-5.9-90.5-12.6l-4.3-1.3-.3-4.5c-2.1-29-3.6-58.4-4.6-87.5-2.8-86.4-.6-173.9 6.7-260.3l.8-10.1 8.8 5c13.8 7.8 28.5 14.2 43.5 19 32 .1 56.8 3.2 78.7 5.9 8.8 1.1 17.2 2.2 25.1 2.9 6.5.6 12.3.9 17.9.9 24.1 0 39-5.4 61.6-13.7 6.3-2.3 13.4-4.9 21.3-7.6l8.4-2.8 6 332.6-3.8 1.8c-5.6 2.6-11 6-16.7 9.7-18.9 12-42.6 27.1-94.5 27.1z" fill="#ba003a"/><path d="M25.2 79.1c10.6 6 26 13.7 45.7 19.8 45.2 0 76.5 6.2 104.3 8.8 6.8.6 12.9.9 18.5.9 32.4 0 49.4-9.6 85-21.6 1.9 106.5 3.8 213 5.8 319.5-25 11.7-42.9 36.1-108.6 36.1-9.3 0-19.6-.5-31.1-1.6-51.4-4.9-93.9-6.9-121.6-15.3-2-28.3-3.6-57.4-4.6-87.2-3.1-92.3-.1-179.1 6.6-259.4M14 57.7L12.3 78C5 164.6 2.7 252.4 5.6 339c1 29.1 2.5 58.6 4.6 87.7l.6 8.9 8.6 2.6c23 6.9 54.9 9.7 91.8 12.9 10.4.9 21.2 1.8 32.4 2.9 11.4 1.1 22.3 1.6 32.3 1.6 53.8 0 78.4-15.6 98.2-28.1 5.5-3.5 10.8-6.8 16-9.3l7.6-3.6-.2-8.4-2.9-159.8-2.9-159.8-.3-17.6-16.8 5.7c-8 2.7-15.2 5.3-21.5 7.6-21.9 8-36.4 13.3-59.4 13.3-5.4 0-11-.3-17.3-.9-7.8-.7-16.1-1.8-24.9-2.9-21.9-2.7-46.6-5.8-78.5-6-14.3-4.6-28.2-10.7-41.3-18.1L14 57.7z"/><path d="M184.8 99.9c-12.4 0-26.4-.5-44.1-1.2-15.9-.6-33.9-1.3-56.6-1.9-25.5-.6-75.2-15-75.2-39.3 0-39.4 117.7-41.7 141.3-41.7h.7c51.5 0 125.8 14.6 140.8 32.8 3.3 4 3.5 7.7 3.1 10.1-4.8 25.4-60 36.5-62.4 36.9-15.4 3.1-29.2 4.3-47.6 4.3z" fill="#666"/><path d="M150.9 21.3c61.3 0 141.6 19.8 138.5 36.4-3.1 16.5-37.6 28.6-58 32.6-15.9 3.1-29.6 4.1-46.5 4.1-23.1 0-52.2-1.9-100.5-3.1-25.9-.6-69.9-15-69.9-33.8 0-25.7 73.8-36.1 135.8-36.2h.6m0-11v11-11h-.7c-34.7.1-68.8 3.3-93.5 8.8-14.9 3.3-26.8 7.5-35.3 12.4-14.9 8.6-18 18.9-18 26 0 9.3 5.5 22.7 31.9 33.8 15.1 6.5 33.7 10.6 48.7 11 22.6.6 40.6 1.3 56.5 1.9 17.8.7 31.8 1.2 44.3 1.2 18.8 0 32.9-1.3 48.7-4.3 6.3-1.2 61.3-12.8 66.7-41.3.7-3.5.5-9-4.2-14.6-9.7-11.7-37.2-20-58.6-24.8-28.2-6.4-59.8-10.1-86.5-10.1z"/><path d="M284 49.3c0 5.1-61 20.9-134 20.9S17.8 51.7 17.8 46.6s55.4-25.3 128.4-25.3S284 44.2 284 49.3z" fill="#999"/><path d="M283.6 359.5c-37.6 4-85.7 6.2-136.8 2.8-49.9-3.3-93.6-11-129.8-19.7 1.1-58.7-2.1-117.8 2.3-176.1 33.6 8.1 79 15.4 131.3 15.4 51.5 0 127.3-24.4 128.6-15.1.6 64.2 3.9 128.4 4.4 192.7z" fill="#e6e6e6"/><path class="prefix__st4" d="M34.1 200.1c7.1 2.8 17.2 4.7 30.8 8.1 29.7 7.6 50.6-20.3 34.3-4.9 1.8 21.8 7.9 44.6-6.7 86.6-.7 2.1-13 29.7-37.1 26.7-17.7-2.2-2.5-31.4-2.3-32.4M118.9 300.2c20.2-71.7 46.6-105.7 52-95.6 9.2 17 24.6 60.8 17.3 114.6"/><path fill="none" stroke="#000" stroke-width="24" stroke-linecap="round" stroke-miterlimit="10" d="M130.9 270.7h55.9"/><path class="prefix__st4" d="M211.5 315.7c20.8-78.1 21.5-113.4 24.4-108.3 3.7 6.7 3.7 38 12.1 40.1 7 1.8 27.9-24.8 28.6-39.5.2-5.6 1.2 21.7 7.4 97.5"/></svg>